<svg width="1200" height="1200" viewBox="0 0 1200 1200" fill="none" xmlns="http://www.w3.org/2000/svg" role="img" aria-labelledby="title desc">
  <title id="title">NEXA IA icon mark</title>
  <desc id="desc">Icon-only mark for NEXA IA, suitable for profile pictures and favicons.</desc>
  <rect width="1200" height="1200" rx="240" fill="#07100F"/>
  <circle cx="600" cy="540" r="322" stroke="#0F766E" stroke-width="36"/>
  <path d="M350 752L272 842C260 856 267 879 286 883L424 911" stroke="#0F766E" stroke-width="36" stroke-linecap="round" stroke-linejoin="round"/>
  <path d="M410 715V356L600 715V356" stroke="#F7FAF9" stroke-width="56" stroke-linecap="round" stroke-linejoin="round"/>
  <path d="M602 715L790 356V715" stroke="#E6ECEA" stroke-width="56" stroke-linecap="round" stroke-linejoin="round"/>
  <path d="M792 454H904" stroke="#0F766E" stroke-width="32" stroke-linecap="round"/>
  <path d="M792 572H948" stroke="#0F766E" stroke-width="32" stroke-linecap="round"/>
  <path d="M792 690H884" stroke="#0F766E" stroke-width="32" stroke-linecap="round"/>
  <circle cx="946" cy="454" r="31" fill="#07100F" stroke="#C7D7D3" stroke-width="20"/>
  <circle cx="990" cy="572" r="31" fill="#07100F" stroke="#C7D7D3" stroke-width="20"/>
  <circle cx="926" cy="690" r="31" fill="#07100F" stroke="#C7D7D3" stroke-width="20"/>
  <path d="M334 347L278 304C267 296 272 278 287 277L455 265C470 264 479 282 468 293L345 405C334 415 317 405 322 391L334 347Z" fill="#D7192D"/>
</svg>
