<svg width="1080" height="1350" viewBox="0 0 1080 1350" fill="none" xmlns="http://www.w3.org/2000/svg" role="img" aria-labelledby="title desc">
  <title id="title">Flyer AinaWeb</title>
  <desc id="desc">Promocion de pagina web oficial para negocios locales.</desc>
  <rect width="1080" height="1350" fill="#F5F8F7"/>
  <circle cx="854" cy="250" r="220" fill="#0F766E" opacity="0.12"/>
  <rect x="64" y="64" width="952" height="1222" rx="46" fill="#FFFFFF" stroke="#D8E2DF" stroke-width="3"/>
  <circle cx="130" cy="134" r="36" fill="#06100F"/>
  <text x="184" y="149" fill="#06100F" font-family="Inter, Arial, sans-serif" font-size="34" font-weight="900">NEXA IA</text>
  <text x="78" y="270" fill="#0F766E" font-family="Inter, Arial, sans-serif" font-size="32" font-weight="900">AINAWEB</text>
  <text x="78" y="396" fill="#06100F" font-family="Inter, Arial, sans-serif" font-size="84" font-weight="950">Tu pagina</text>
  <text x="78" y="490" fill="#06100F" font-family="Inter, Arial, sans-serif" font-size="84" font-weight="950">oficial lista</text>
  <text x="78" y="584" fill="#06100F" font-family="Inter, Arial, sans-serif" font-size="84" font-weight="950">para vender</text>
  <rect x="78" y="656" width="924" height="278" rx="30" fill="#06100F"/>
  <rect x="124" y="720" width="380" height="42" rx="12" fill="#128577"/>
  <rect x="124" y="798" width="560" height="30" rx="10" fill="#DCE8E4"/>
  <rect x="124" y="854" width="456" height="30" rx="10" fill="#DCE8E4"/>
  <rect x="718" y="726" width="226" height="132" rx="24" fill="#D9FDD3"/>
  <text x="752" y="807" fill="#06100F" font-family="Inter, Arial, sans-serif" font-size="32" font-weight="950">WhatsApp</text>
  <rect x="78" y="990" width="258" height="58" rx="16" fill="#E9F3F0"/>
  <text x="112" y="1028" fill="#0F766E" font-family="Inter, Arial, sans-serif" font-size="24" font-weight="900">Servicios</text>
  <rect x="360" y="990" width="258" height="58" rx="16" fill="#E9F3F0"/>
  <text x="394" y="1028" fill="#0F766E" font-family="Inter, Arial, sans-serif" font-size="24" font-weight="900">Ubicacion</text>
  <rect x="642" y="990" width="258" height="58" rx="16" fill="#E9F3F0"/>
  <text x="676" y="1028" fill="#0F766E" font-family="Inter, Arial, sans-serif" font-size="24" font-weight="900">Boton directo</text>
  <text x="78" y="1136" fill="#06100F" font-family="Inter, Arial, sans-serif" font-size="58" font-weight="950">Desde US$149</text>
  <text x="78" y="1204" fill="#0F766E" font-family="Inter, Arial, sans-serif" font-size="32" font-weight="900">Entrega rapida para negocios sin web</text>
</svg>
